<svg viewBox="0 0 16 16" xmlns="http://www.w3.org/2000/svg">
<path d="M3.8025 7.06687C3.715 6.80219 3.6075 6.34063 3.6075 6.34063H3.595C3.595 6.34063 3.4875 6.80219 3.4 7.06687L3.1225 7.88719H4.075L3.8025 7.06687ZM15.4 4H8.4V11H15.4C15.7325 11 16 10.7659 16 10.475V4.525C16 4.23406 15.7325 4 15.4 4ZM14.8 6.625C14.8 6.76937 14.665 6.8875 14.5 6.8875H14.215C14.0425 7.40375 13.6725 7.92437 13.1475 8.41656C13.3575 8.55656 13.575 8.69 13.8 8.81031C13.9375 8.88469 13.9825 9.04 13.9025 9.16469L13.705 9.46875C13.62 9.59781 13.4325 9.63937 13.2875 9.56281C12.9725 9.39219 12.675 9.21062 12.4025 9.01812C12.13 9.20844 11.835 9.39219 11.5175 9.56281C11.3725 9.63937 11.185 9.59781 11.1 9.46875L10.9025 9.16469C10.8225 9.04219 10.8675 8.88469 11.0075 8.81031C11.24 8.68562 11.4575 8.55437 11.66 8.41656C11.4625 8.23281 11.2875 8.04469 11.135 7.85438C11.035 7.72969 11.08 7.55688 11.2275 7.48031L11.39 7.395L11.5725 7.30094C11.7075 7.23094 11.8825 7.26375 11.9725 7.37531C12.0975 7.52844 12.2425 7.68156 12.4075 7.8325C12.745 7.52188 13.0025 7.20031 13.1575 6.8875H10.3C10.135 6.8875 10 6.76937 10 6.625V6.275C10 6.13062 10.135 6.0125 10.3 6.0125H11.9V5.6625C11.9 5.51813 12.035 5.4 12.2 5.4H12.6C12.765 5.4 12.9 5.51813 12.9 5.6625V6.0125H14.5C14.665 6.0125 14.8 6.13062 14.8 6.275V6.625ZM0 4.525V10.475C0 10.7659 0.2675 11 0.6 11H7.6V4H0.6C0.2675 4 0 4.23406 0 4.525ZM1.4725 9.25219L2.91 5.55313C2.9525 5.44594 3.065 5.37594 3.195 5.37594H4.0075C4.135 5.37594 4.25 5.44813 4.2925 5.55313L5.73 9.25219C5.795 9.42281 5.6525 9.6 5.445 9.6H4.8725C4.8078 9.59996 4.74485 9.58162 4.69304 9.54772C4.64123 9.51382 4.60333 9.46617 4.585 9.41187L4.35 8.71406H2.845L2.6175 9.40969C2.58 9.52125 2.4625 9.6 2.33 9.6H1.7575C1.5525 9.6 1.4075 9.42281 1.4725 9.25219Z" />
</svg>
