<svg viewBox="0 0 16 16"  xmlns="http://www.w3.org/2000/svg">
<path fill-rule="evenodd" clip-rule="evenodd" d="M8.61394 0.543961C8.25283 0.263097 7.74717 0.263097 7.38606 0.543961L1.38606 5.21063C1.14247 5.40008 1 5.69139 1 5.99998V13.3333C1 13.9522 1.24583 14.5456 1.68342 14.9832C2.121 15.4208 2.71449 15.6666 3.33333 15.6666H5.99376C5.99584 15.6667 5.99792 15.6667 6 15.6667C6.00208 15.6667 6.00416 15.6667 6.00624 15.6666H9.99376C9.99584 15.6667 9.99792 15.6667 10 15.6667C10.0021 15.6667 10.0042 15.6667 10.0062 15.6666H12.6667C13.2855 15.6666 13.879 15.4208 14.3166 14.9832C14.7542 14.5456 15 13.9522 15 13.3333V5.99998C15 5.69139 14.8575 5.40008 14.6139 5.21063L8.61394 0.543961ZM11 13.6666H12.6667C12.7551 13.6666 12.8399 13.6315 12.9024 13.569C12.9649 13.5065 13 13.4217 13 13.3333V6.48906L8 2.60017L3 6.48906V13.3333C3 13.4217 3.03512 13.5065 3.09763 13.569C3.16014 13.6315 3.24493 13.6666 3.33333 13.6666H5V8C5 7.44772 5.44772 7 6 7H10C10.5523 7 11 7.44772 11 8V13.6666ZM7 13.6666H9V9H7V13.6666Z" />
</svg>
