<svg xmlns="http://www.w3.org/2000/svg" viewBox="0 0 16 16"><path d="M8,0H8l.09.12,2.12,2.12a.33.33,0,0,0,.26.11h3.16v.19c0,1,0,2,0,3a.41.41,0,0,0,.09.23l2.14,2.14L16,8V8l-.12.09-2.12,2.12a.33.33,0,0,0-.11.26c0,1,0,2,0,3v.18H10.48a.41.41,0,0,0-.23.09L8.11,15.89A1,1,0,0,0,8,16H8l-.09-.12L5.76,13.76a.33.33,0,0,0-.26-.11H2.34v-.19c0-1,0-2,0-3a.41.41,0,0,0-.09-.23L.11,8.11,0,8V8l.12-.09L2.24,5.76a.33.33,0,0,0,.11-.26c0-1,0-2,0-3V2.34h.19c1,0,2,0,3,0a.41.41,0,0,0,.23-.09L7.89.11A1,1,0,0,0,8,0ZM8,12.23A4.23,4.23,0,1,0,8,3.78Z"/></svg>