<svg viewBox="0 0 16 16" xmlns="http://www.w3.org/2000/svg"><path d="m8 0 .09.12 2.12 2.12a.33.33 0 0 0 .26.11h3.16v.19 3a.41.41 0 0 0 .09.23l2.14 2.14.14.09-.12.09-2.12 2.12a.33.33 0 0 0 -.11.26v3 .18h-3.17a.41.41 0 0 0 -.23.09l-2.14 2.15a1 1 0 0 0 -.11.11l-.09-.12-2.15-2.12a.33.33 0 0 0 -.26-.11h-3.16v-.19c0-1 0-2 0-3a.41.41 0 0 0 -.09-.23l-2.14-2.12-.11-.11.12-.09 2.12-2.15a.33.33 0 0 0 .11-.26c0-1 0-2 0-3v-.16h.19 3a.41.41 0 0 0 .23-.09l2.12-2.14a1 1 0 0 0 .11-.11zm0 12.23a4.23 4.23 0 1 0 0-8.45z"/></svg>