<svg viewBox="0 0 16 16" xmlns="http://www.w3.org/2000/svg">
<path d="M8.89666 0.89075C8.72818 0.549446 8.38057 0.333374 7.99995 0.333374C7.61933 0.333374 7.27171 0.549446 7.10324 0.89075L5.27569 4.59317L1.18865 5.19056C0.812093 5.2456 0.499413 5.5096 0.382035 5.87161C0.264657 6.23362 0.36293 6.63087 0.635548 6.8964L3.59209 9.77607L2.89434 13.8443C2.82999 14.2195 2.98424 14.5987 3.29221 14.8224C3.60019 15.0462 4.00848 15.0756 4.3454 14.8984L7.99995 12.9766L11.6545 14.8984C11.9914 15.0756 12.3997 15.0462 12.7077 14.8224C13.0157 14.5987 13.1699 14.2195 13.1056 13.8443L12.4078 9.77607L15.3643 6.8964C15.637 6.63087 15.7352 6.23362 15.6179 5.87161C15.5005 5.5096 15.1878 5.2456 14.8112 5.19056L10.7242 4.59317L8.89666 0.89075Z" />
</svg>
