<svg viewBox="0 0 16 16" xmlns="http://www.w3.org/2000/svg">
<g clip-path="url(#clip0_71_785)">
<path fill-rule="evenodd" clip-rule="evenodd" d="M2.30287 8.23182C2.24811 8.14855 2.19865 8.07091 2.15458 8C2.19865 7.92909 2.24811 7.85145 2.30287 7.76818C2.58724 7.33573 3.00803 6.76129 3.5529 6.19048C4.65959 5.03108 6.16521 4 8 4C9.8348 4 11.3404 5.03108 12.4471 6.19048C12.992 6.76129 13.4128 7.33573 13.6971 7.76818C13.7519 7.85145 13.8013 7.92909 13.8454 8C13.8013 8.07091 13.7519 8.14855 13.6971 8.23182C13.4128 8.66427 12.992 9.23871 12.4471 9.80952C11.3404 10.9689 9.8348 12 8 12C6.16521 12 4.65959 10.9689 3.5529 9.80952C3.00803 9.23871 2.58724 8.66427 2.30287 8.23182ZM15.8894 7.54293L15.8908 7.54564C16.0359 7.83069 16.0363 8.16863 15.8912 8.45368L15.9296 8.01666L15.8904 8.45515L15.8894 8.45707L15.8867 8.46229L15.8785 8.47811C15.8718 8.491 15.8625 8.50856 15.8507 8.53047C15.8271 8.57428 15.7934 8.63557 15.7497 8.71183C15.6624 8.86423 15.5349 9.07722 15.3682 9.33068C15.0361 9.83573 14.5421 10.5113 13.8938 11.1905C12.6141 12.5311 10.6198 14 8 14C5.38025 14 3.38586 12.5311 2.10619 11.1905C1.45788 10.5113 0.963896 9.83573 0.63179 9.33068C0.465123 9.07722 0.337599 8.86423 0.250318 8.71183C0.20664 8.63557 0.172927 8.57428 0.149323 8.53047C0.137518 8.50856 0.12823 8.491 0.121479 8.47811L0.113253 8.46229L0.110568 8.45707L0.109583 8.45515L0.108837 8.45368C0.0362788 8.31116 -1.48256e-07 8.15558 0 8L0.109583 7.54485L0.110568 7.54293L0.113253 7.53771L0.121479 7.52189C0.12823 7.509 0.137518 7.49144 0.149323 7.46953C0.172927 7.42572 0.20664 7.36443 0.250318 7.28817C0.337599 7.13577 0.465123 6.92278 0.63179 6.66932C0.963896 6.16427 1.45788 5.48871 2.10619 4.80952C3.38586 3.46891 5.38025 2 8 2C10.6198 2 12.6141 3.46891 13.8938 4.80952C14.5421 5.48871 15.0361 6.16427 15.3682 6.66932C15.5349 6.92278 15.6624 7.13577 15.7497 7.28817C15.7934 7.36443 15.8271 7.42572 15.8507 7.46953C15.8625 7.49144 15.8718 7.509 15.8785 7.52189L15.8867 7.53771L15.8894 7.54293ZM0.108837 7.54632C0.0362791 7.68884 1.48256e-07 7.84442 0 8L0.108837 7.54632ZM7 8C7 7.44772 7.44772 7 8 7C8.55229 7 9 7.44772 9 8C9 8.55229 8.55229 9 8 9C7.44772 9 7 8.55229 7 8ZM8 5C6.34315 5 5 6.34315 5 8C5 9.65685 6.34315 11 8 11C9.65685 11 11 9.65685 11 8C11 6.34315 9.65685 5 8 5Z" />
</g>
<defs>
<clipPath id="clip0_71_785">
<rect width="16" height="16" fill="white"/>
</clipPath>
</defs>
</svg>
