<svg viewBox="0 0 16 16" xmlns="http://www.w3.org/2000/svg">
<path fill-rule="evenodd" clip-rule="evenodd" d="M2 1C1.44772 1 1 1.44772 1 2V6C1 6.55228 1.44772 7 2 7H6C6.55228 7 7 6.55228 7 6V2C7 1.44772 6.55228 1 6 1H2ZM3 5V3H5V5H3ZM10 1C9.44771 1 9 1.44772 9 2V6C9 6.55228 9.44771 7 10 7H14C14.5523 7 15 6.55228 15 6V2C15 1.44772 14.5523 1 14 1H10ZM11 5V3H13V5H11ZM9 10C9 9.44771 9.44771 9 10 9H14C14.5523 9 15 9.44771 15 10V14C15 14.5523 14.5523 15 14 15H10C9.44771 15 9 14.5523 9 14V10ZM11 11V13H13V11H11ZM2 9C1.44772 9 1 9.44771 1 10V14C1 14.5523 1.44772 15 2 15H6C6.55228 15 7 14.5523 7 14V10C7 9.44771 6.55228 9 6 9H2ZM3 13V11H5V13H3Z" />
</svg>
