<svg viewBox="0 0 16 16"  xmlns="http://www.w3.org/2000/svg">
<path fill-rule="evenodd" clip-rule="evenodd" d="M4.66753 1.00037C3.42962 1.00037 2.24242 1.49212 1.36709 2.36745C0.491756 3.24278 0 4.42999 0 5.66789C0 6.9058 0.491756 8.093 1.36709 8.96833L7.26042 14.8617C7.45981 15.0611 7.72246 15.1586 7.98376 15.1544C8.24507 15.1586 8.50772 15.0611 8.70711 14.8617L14.6004 8.96833C15.4758 8.093 15.9675 6.9058 15.9675 5.66789C15.9675 4.42999 15.4758 3.24278 14.6004 2.36745C13.7251 1.49212 12.5379 1.00037 11.3 1.00037C10.0621 1.00037 8.87489 1.49212 7.99956 2.36745L7.98376 2.38325L7.96797 2.36745C7.09264 1.49212 5.90543 1.00037 4.66753 1.00037ZM7.98376 4.7811C7.72246 4.78531 7.45981 4.68773 7.26042 4.48833L6.55375 3.78167C6.05349 3.28141 5.375 3.00037 4.66753 3.00037C3.96006 3.00037 3.28156 3.28141 2.7813 3.78167C2.28104 4.28193 2 4.96042 2 5.66789C2 6.37536 2.28104 7.05386 2.7813 7.55412L7.98376 12.7566L13.1862 7.55412C13.6865 7.05386 13.9675 6.37536 13.9675 5.66789C13.9675 4.96042 13.6865 4.28193 13.1862 3.78167C12.686 3.28141 12.0075 3.00037 11.3 3.00037C10.5925 3.00037 9.91403 3.28141 9.41378 3.78167L8.70711 4.48833C8.50772 4.68773 8.24507 4.78531 7.98376 4.7811Z" />
</svg>
