<svg viewBox="0 0 16 16" xmlns="http://www.w3.org/2000/svg">
<path fill-rule="evenodd" clip-rule="evenodd" d="M4.46442 1.7978C5.4021 0.86012 6.67387 0.333336 7.99996 0.333336C9.32604 0.333336 10.5978 0.86012 11.5355 1.7978C12.4732 2.73548 13 4.00725 13 5.33334C13 7.51933 13.467 8.8513 13.8779 9.60448C14.0846 9.98361 14.2827 10.2264 14.4134 10.3643C14.479 10.4336 14.5283 10.4771 14.5542 10.4987C14.5632 10.5062 14.5694 10.5111 14.5725 10.5134C14.9266 10.7606 15.0827 11.2083 14.957 11.6231C14.8294 12.0449 14.4406 12.3333 14 12.3333H1.99996C1.55929 12.3333 1.17056 12.0449 1.04286 11.6231C0.917252 11.2083 1.07334 10.7606 1.42745 10.5134C1.4305 10.5111 1.43668 10.5062 1.44571 10.4987C1.47158 10.4771 1.5209 10.4336 1.5865 10.3643C1.71718 10.2264 1.91527 9.98361 2.12206 9.60448C2.53289 8.8513 2.99996 7.51933 2.99996 5.33334C2.99996 4.00725 3.52674 2.73548 4.46442 1.7978ZM3.99725 10.3333H12.0027C11.4628 9.25116 11 7.64513 11 5.33334C11 4.53769 10.6839 3.77462 10.1213 3.21202C9.55867 2.64941 8.79561 2.33334 7.99996 2.33334C7.20431 2.33334 6.44124 2.64941 5.87864 3.21202C5.31603 3.77462 4.99996 4.53769 4.99996 5.33334C4.99996 7.64513 4.53712 9.25116 3.99725 10.3333Z"  />
<path fill-rule="evenodd" clip-rule="evenodd" d="M6.34495 13.135C6.82268 12.8579 7.4346 13.0205 7.71172 13.4982C7.74102 13.5487 7.78308 13.5907 7.83368 13.6198C7.88429 13.649 7.94166 13.6643 8.00006 13.6643C8.05845 13.6643 8.11582 13.649 8.16643 13.6198C8.21703 13.5907 8.25909 13.5487 8.28839 13.4982C8.56551 13.0205 9.17743 12.8579 9.65516 13.135C10.1329 13.4121 10.2955 14.024 10.0184 14.5018C9.81328 14.8554 9.51887 15.1489 9.16465 15.3529C8.81043 15.5569 8.40883 15.6643 8.00006 15.6643C7.59128 15.6643 7.18968 15.5569 6.83546 15.3529C6.48124 15.1489 6.18683 14.8554 5.98172 14.5018C5.7046 14.024 5.86722 13.4121 6.34495 13.135Z" />
</svg>
