<svg viewBox="0 0 16 16" xmlns="http://www.w3.org/2000/svg">
<path fill-rule="evenodd" clip-rule="evenodd" d="M2 3C1.44772 3 1 3.44772 1 4C1 4.55228 1.44772 5 2 5H2.00667C2.55895 5 3.00667 4.55228 3.00667 4C3.00667 3.44772 2.55895 3 2.00667 3H2ZM5.33337 3C4.78109 3 4.33337 3.44772 4.33337 4C4.33337 4.55228 4.78109 5 5.33337 5H14C14.5523 5 15 4.55228 15 4C15 3.44772 14.5523 3 14 3H5.33337ZM5.33337 7C4.78109 7 4.33337 7.44772 4.33337 8C4.33337 8.55228 4.78109 9 5.33337 9H14C14.5523 9 15 8.55228 15 8C15 7.44772 14.5523 7 14 7H5.33337ZM4.33337 12C4.33337 11.4477 4.78109 11 5.33337 11H14C14.5523 11 15 11.4477 15 12C15 12.5523 14.5523 13 14 13H5.33337C4.78109 13 4.33337 12.5523 4.33337 12ZM1 8C1 7.44772 1.44772 7 2 7H2.00667C2.55895 7 3.00667 7.44772 3.00667 8C3.00667 8.55228 2.55895 9 2.00667 9H2C1.44772 9 1 8.55228 1 8ZM2 11C1.44772 11 1 11.4477 1 12C1 12.5523 1.44772 13 2 13H2.00667C2.55895 13 3.00667 12.5523 3.00667 12C3.00667 11.4477 2.55895 11 2.00667 11H2Z" />
</svg>
