<svg viewBox="0 0 16 16"  xmlns="http://www.w3.org/2000/svg">
<path fill-rule="evenodd" clip-rule="evenodd" d="M11.6666 1.33333C11.6666 0.781043 11.2189 0.333328 10.6666 0.333328C10.1143 0.333328 9.66663 0.781043 9.66663 1.33333V1.66667H6.33337V1.33333C6.33337 0.781043 5.88566 0.333328 5.33337 0.333328C4.78109 0.333328 4.33337 0.781043 4.33337 1.33333V1.66667H3.33333C2.04467 1.66667 1 2.71134 1 4.00001V6.66667V13.3333C1 14.622 2.04467 15.6667 3.33333 15.6667H12.6667C13.9553 15.6667 15 14.622 15 13.3333V6.66667V4.00001C15 2.71134 13.9553 1.66667 12.6667 1.66667H11.6666V1.33333ZM13 5.66667V4.00001C13 3.81591 12.8508 3.66667 12.6667 3.66667H11.6666V3.99999C11.6666 4.55228 11.2189 5 10.6666 5C10.1143 5 9.66663 4.55228 9.66663 3.99999V3.66667H6.33337V3.99999C6.33337 4.55228 5.88566 5 5.33337 5C4.78109 5 4.33337 4.55228 4.33337 3.99999V3.66667H3.33333C3.14924 3.66667 3 3.81591 3 4.00001V5.66667H13ZM3 7.66667H13V13.3333C13 13.5174 12.8508 13.6667 12.6667 13.6667H3.33333C3.14924 13.6667 3 13.5174 3 13.3333V7.66667Z" fill="currentColor"/>
</svg>
