<svg viewBox="0 0 16 16" xmlns="http://www.w3.org/2000/svg">
<path fill-rule="evenodd" clip-rule="evenodd" d="M8.00001 0.333328C8.38063 0.333328 8.72824 0.549401 8.89672 0.890704L10.7243 4.59313L14.8113 5.19051C15.1879 5.24555 15.5005 5.50956 15.6179 5.87156C15.7353 6.23357 15.637 6.63082 15.3644 6.89635L12.4079 9.77603L13.1056 13.8443C13.17 14.2195 13.0157 14.5987 12.7077 14.8224C12.3998 15.0461 11.9915 15.0756 11.6546 14.8984L8.00001 12.9765L4.34546 14.8984C4.00854 15.0756 3.60025 15.0461 3.29227 14.8224C2.9843 14.5987 2.83005 14.2195 2.8944 13.8443L3.59215 9.77603L0.635609 6.89635C0.362991 6.63082 0.264718 6.23357 0.382096 5.87156C0.499474 5.50956 0.812154 5.24555 1.18871 5.19051L5.27575 4.59313L7.1033 0.890704C7.27177 0.549401 7.61939 0.333328 8.00001 0.333328ZM8.00001 3.59258L6.83672 5.94929C6.69118 6.24413 6.40999 6.44859 6.08464 6.49615L3.48175 6.8766L5.36441 8.71031C5.60028 8.94005 5.70794 9.27118 5.65228 9.59571L5.20819 12.185L7.53456 10.9616C7.82594 10.8084 8.17408 10.8084 8.46546 10.9616L10.7918 12.185L10.3477 9.59571C10.2921 9.27118 10.3997 8.94005 10.6356 8.71031L12.5183 6.8766L9.91538 6.49615C9.59003 6.44859 9.30884 6.24413 9.1633 5.94929L8.00001 3.59258Z" />
</svg>
