<svg viewBox="0 0 16 16"  xmlns="http://www.w3.org/2000/svg">
<g>
<path d="M8.00005 7C8.55233 7 9.00005 7.44771 9.00005 8V10.6667C9.00005 11.219 8.55233 11.6667 8.00005 11.6667C7.44776 11.6667 7.00005 11.219 7.00005 10.6667V8C7.00005 7.44771 7.44776 7 8.00005 7Z" />
<path d="M8.00005 4.33331C7.44776 4.33331 7.00005 4.78103 7.00005 5.33331C7.00005 5.8856 7.44776 6.33331 8.00005 6.33331H8.0062C8.55849 6.33331 9.0062 5.8856 9.0062 5.33331C9.0062 4.78103 8.55849 4.33331 8.0062 4.33331H8.00005Z" />
<path fill-rule="evenodd" clip-rule="evenodd" d="M0.333374 7.99998C0.333374 3.7658 3.76586 0.333313 8.00004 0.333313C12.2342 0.333313 15.6667 3.7658 15.6667 7.99998C15.6667 12.2342 12.2342 15.6666 8.00004 15.6666C3.76586 15.6666 0.333374 12.2342 0.333374 7.99998ZM8.00004 2.33331C4.87043 2.33331 2.33337 4.87037 2.33337 7.99998C2.33337 11.1296 4.87043 13.6666 8.00004 13.6666C11.1297 13.6666 13.6667 11.1296 13.6667 7.99998C13.6667 4.87037 11.1297 2.33331 8.00004 2.33331Z" />
</g>
</svg>
