<svg viewBox="0 0 16 16"  xmlns="http://www.w3.org/2000/svg">
<g clip-path="url(#clip0_779_3683)">
<path fill-rule="evenodd" clip-rule="evenodd" d="M2.43101 2.43096C2.49352 2.36845 2.5783 2.33333 2.66671 2.33333H8.66671C8.75511 2.33333 8.8399 2.36845 8.90241 2.43096C8.96492 2.49347 9.00004 2.57826 9.00004 2.66666V3.33333C9.00004 3.88561 9.44776 4.33333 10 4.33333C10.5523 4.33333 11 3.88561 11 3.33333V2.66666C11 2.04782 10.7542 1.45433 10.3166 1.01675C9.87904 0.579161 9.28555 0.333328 8.66671 0.333328H2.66671C2.04787 0.333328 1.45438 0.579161 1.01679 1.01675C0.579206 1.45433 0.333374 2.04782 0.333374 2.66666V8.66666C0.333374 9.2855 0.579207 9.87899 1.01679 10.3166C1.45438 10.7542 2.04787 11 2.66671 11H3.33337C3.88566 11 4.33337 10.5523 4.33337 10C4.33337 9.44771 3.88566 9 3.33337 9H2.66671C2.5783 9 2.49352 8.96488 2.43101 8.90236C2.36849 8.83985 2.33337 8.75507 2.33337 8.66666V2.66666C2.33337 2.57826 2.36849 2.49347 2.43101 2.43096ZM7 7.33333C7 7.14924 7.14924 7 7.33333 7H13.3333C13.5174 7 13.6667 7.14924 13.6667 7.33333V13.3333C13.6667 13.5174 13.5174 13.6667 13.3333 13.6667H7.33333C7.14924 13.6667 7 13.5174 7 13.3333V7.33333ZM7.33333 5C6.04467 5 5 6.04467 5 7.33333V13.3333C5 14.622 6.04467 15.6667 7.33333 15.6667H13.3333C14.622 15.6667 15.6667 14.622 15.6667 13.3333V7.33333C15.6667 6.04467 14.622 5 13.3333 5H7.33333Z" />
</g>
<defs>
<clipPath id="clip0_779_3683">
<rect width="16" height="16" />
</clipPath>
</defs>
</svg>
