<svg viewBox="0 0 16 16" xmlns="http://www.w3.org/2000/svg"><path clip-rule="evenodd" d="m6 4c0-1.10457.89543-2 2-2s2 .89543 2 2-.89543 2-2 2-2-.89543-2-2zm2-4c-2.20914 0-4 1.79086-4 4s1.79086 4 4 4c2.2091 0 4-1.79086 4-4s-1.7909-4-4-4zm-3 9c-1.0969 0-2.12458.48509-2.86461 1.3073-.73691.8188-1.13539 1.9088-1.13539 3.026v1.6667c0 .5523.44772 1 1 1s1-.4477 1-1v-1.6667c0-.6508.23366-1.2566.62197-1.688.38519-.428.88363-.6453 1.37803-.6453h6c.4944 0 .9928.2173 1.378.6453.3883.4314.622 1.0372.622 1.688v1.6667c0 .5523.4477 1 1 1s1-.4477 1-1v-1.6667c0-1.1172-.3985-2.2072-1.1354-3.026-.74-.82221-1.7677-1.3073-2.8646-1.3073z" fill-rule="evenodd"/></svg>