<svg viewBox="0 0 16 16" xmlns="http://www.w3.org/2000/svg">
    <path fill-rule="evenodd" clip-rule="evenodd" d="M6 4C6 2.89543 6.89543 2 8 2C9.10457 2 10 2.89543 10 4C10 5.10457 9.10457 6 8 6C6.89543 6 6 5.10457 6 4ZM8 0C5.79086 0 4 1.79086 4 4C4 6.20914 5.79086 8 8 8C10.2091 8 12 6.20914 12 4C12 1.79086 10.2091 0 8 0ZM5 9C3.9031 9 2.87542 9.48509 2.13539 10.3073C1.39848 11.1261 1 12.2161 1 13.3333V15C1 15.5523 1.44772 16 2 16C2.55228 16 3 15.5523 3 15V13.3333C3 12.6825 3.23366 12.0767 3.62197 11.6453C4.00716 11.2173 4.5056 11 5 11H11C11.4944 11 11.9928 11.2173 12.378 11.6453C12.7663 12.0767 13 12.6825 13 13.3333V15C13 15.5523 13.4477 16 14 16C14.5523 16 15 15.5523 15 15V13.3333C15 12.2161 14.6015 11.1261 13.8646 10.3073C13.1246 9.48509 12.0969 9 11 9H5Z"/>
</svg>
