<?xml version="1.0" encoding="UTF-8"?>
<svg id="Layer_1" data-name="Layer 1" xmlns="http://www.w3.org/2000/svg" viewBox="0 0 200.01 124.99">
  <defs>
    <style>
      .cls-1 {
        opacity: .2;
      }

      .cls-1, .cls-2, .cls-3, .cls-4 {
        fill: #fff;
        fill-rule: evenodd;
      }

      .cls-2 {
        opacity: .4;
      }

      .cls-3 {
        opacity: .66;
      }
    </style>
  </defs>
  <path class="cls-1" d="m100.01,100c-14.94-9.98-25-28.63-25-50S85.07,9.98,100.01,0c14.95,9.98,25,28.64,25,50s-10.05,40.02-25,50Z"/>
  <path class="cls-2" d="m100.48,100c-7.95-16.11-7.34-37.29,3.35-55.8,10.68-18.5,28.72-29.63,46.65-30.8,7.96,16.12,7.33,37.3-3.35,55.8-10.68,18.51-28.71,29.63-46.65,30.8h0Z"/>
  <path class="cls-2" d="m100.49,99.03c7.95-16.11,7.34-37.29-3.35-55.8-10.68-18.5-28.72-29.63-46.65-30.8-7.96,16.12-7.33,37.3,3.35,55.8,10.68,18.51,28.71,29.63,46.65,30.8h0Z"/>
  <path class="cls-3" d="m100.01,100c1.17-17.93,12.29-35.97,30.8-46.65,18.5-10.68,39.69-11.3,55.8-3.35-1.17,17.94-12.3,35.97-30.8,46.65-18.51,10.68-39.68,11.31-55.8,3.35h0Z"/>
  <path class="cls-3" d="m100,100c-1.17-17.93-12.29-35.97-30.8-46.65-18.5-10.68-39.69-11.3-55.8-3.35,1.17,17.94,12.3,35.97,30.8,46.65,18.51,10.68,39.68,11.31,55.8,3.35h0Z"/>
  <path class="cls-4" d="m100.01,99.99c9.98-14.94,28.63-25,50-25s40.02,10.06,50,25c-9.98,14.95-28.64,25-50,25s-40.02-10.05-50-25Z"/>
  <path class="cls-4" d="m100,99.99c-9.98-14.94-28.63-25-50-25S9.98,85.05,0,99.99c9.98,14.95,28.64,25,50,25s40.02-10.05,50-25Z"/>
</svg>