<svg xmlns="http://www.w3.org/2000/svg"  viewBox="0 0 100 100"><rect width="100%" height="100%" fill="#DDDDDD"/><path fill="#999999" d="M26.26 45.655h1.42v8.68h-.83q-.19 0-.32-.06-.13-.07-.25-.22l-4.53-5.78q.04.4.04.73v5.33h-1.43v-8.68h.85q.1 0 .18.01.07.01.13.04t.11.08q.05.05.12.13l4.55 5.81q-.02-.21-.03-.41-.01-.21-.01-.38v-5.28Zm11.62 4.34q0 .96-.31 1.77-.32.81-.89 1.41-.58.59-1.39.92-.81.34-1.8.34-.98 0-1.79-.34-.81-.33-1.39-.92-.58-.6-.9-1.41-.32-.81-.32-1.77 0-.95.32-1.77.32-.81.9-1.4.58-.6 1.39-.93.81-.33 1.79-.33.66 0 1.24.15.59.15 1.07.43.49.28.88.68.38.4.65.89t.41 1.07q.14.58.14 1.21Zm-1.65 0q0-.71-.19-1.28-.19-.57-.54-.96-.36-.4-.86-.61-.51-.21-1.15-.21-.63 0-1.14.21-.51.21-.86.61-.36.39-.55.96-.2.57-.2 1.28 0 .72.2 1.28.19.57.55.96.35.4.86.61.51.21 1.14.21.64 0 1.15-.21.5-.21.86-.61.35-.39.54-.96.19-.56.19-1.28Zm7.61-4.34v8.68h-1.62v-8.68h1.62Zm10.13 0h1.22v8.68h-1.42v-5.6q0-.34.03-.73l-2.62 4.93q-.19.35-.57.35h-.23q-.38 0-.57-.35l-2.65-4.95q.02.2.03.39.01.19.01.36v5.6h-1.42v-8.68H47q.11 0 .18.01.08.01.15.03.06.02.11.08.05.05.1.14l2.6 4.82q.1.19.19.4l.17.42q.08-.23.17-.43.09-.21.19-.4l2.56-4.81q.05-.09.11-.14.05-.06.11-.08.07-.02.14-.03.08-.01.19-.01Zm4.97 5.4h2.76l-1.05-2.88q-.08-.19-.16-.46-.09-.26-.17-.57-.08.31-.16.57-.09.27-.17.47l-1.05 2.87Zm2.21-5.4 3.4 8.68h-1.24q-.21 0-.35-.1-.13-.11-.19-.27l-.65-1.77h-3.6l-.64 1.77q-.05.14-.19.26-.14.11-.34.11h-1.26l3.41-8.68h1.65Zm8.58 4.33h2.88v3.51q-.66.49-1.41.71-.75.23-1.6.23-1.06 0-1.92-.33-.86-.33-1.47-.92-.61-.59-.94-1.41-.33-.81-.33-1.78 0-.98.32-1.79.31-.82.9-1.41.58-.58 1.42-.91.83-.32 1.87-.32.53 0 .99.08.46.09.85.23.39.15.72.36.32.21.59.46l-.46.73q-.11.18-.28.22-.18.04-.38-.09-.2-.11-.4-.23-.2-.11-.44-.2-.24-.08-.54-.13-.31-.06-.7-.06-.65 0-1.16.22-.52.21-.89.62-.37.4-.56.96-.2.57-.2 1.26 0 .75.21 1.33.21.59.6.99.39.41.93.62.55.21 1.22.21.48 0 .86-.1t.74-.28v-1.57h-1.09q-.16 0-.25-.09-.08-.08-.08-.21v-.91Zm9.91-3.04h-3.85v2.4h3.03v1.25h-3.03v2.45h3.85v1.29h-5.47v-8.68h5.47v1.29Z"/></svg>
